<svg xmlns="http://www.w3.org/2000/svg" xmlns:xlink="http://www.w3.org/1999/xlink" xmlns:serif="http://www.serif.com/" width="100%" height="100%" viewBox="0 0 338 228" xml:space="preserve" style="fill-rule:evenodd;clip-rule:evenodd;stroke-linejoin:round;stroke-miterlimit:2;"> <g transform="matrix(1,0,0,1,-513.8,-270.4)"> <g> <rect x="604" y="313" width="158" height="120" style="fill:white;"></rect> <g> <g> <path d="M649.4,340.7C638.6,340.7 629.8,349.5 629.8,360.3C629.8,371.1 638.6,379.9 649.4,379.9C660.2,379.9 669,371.1 669,360.3C669,349.5 660.2,340.7 649.4,340.7" style="fill-rule:nonzero;"></path> <path d="M717.8,340.9C707,340.9 698.2,349.7 698.2,360.5C698.2,371.3 707,380.1 717.8,380.1C728.6,380.1 737.4,371.3 737.4,360.5C737.4,349.7 728.6,340.9 717.8,340.9" style="fill-rule:nonzero;"></path> <g> <path d="M591.1,270.4L591.1,455.5L776.2,455.5L776.2,270.4L591.1,270.4ZM649.4,391.8C642,391.8 635.2,389.2 629.8,384.9L629.8,415.8L617.9,415.8L617.9,360.3C617.9,342.9 632,328.8 649.4,328.8C666.8,328.8 680.9,342.9 680.9,360.3C680.9,377.7 666.7,391.8 649.4,391.8ZM749.3,391.9L737.4,391.9L737.4,385.2C732,389.5 725.2,392.1 717.8,392.1C700.4,392.1 686.3,378 686.3,360.6C686.3,343.2 700.4,329.1 717.8,329.1C735.2,329.1 749.3,343.2 749.3,360.6L749.3,391.9Z" style="fill-rule:nonzero;"></path> <path d="M649.4,340.7C638.6,340.7 629.8,349.5 629.8,360.3C629.8,371.1 638.6,379.9 649.4,379.9C660.2,379.9 669,371.1 669,360.3C669,349.5 660.2,340.7 649.4,340.7Z" style="fill-rule:nonzero;"></path> <circle cx="717.8" cy="360.5" r="19.6"></circle> </g> </g> </g> <g> <path d="M521.4,491.7C519.9,491.7 518.7,491.3 518,490.5C517.3,489.7 516.9,488.4 516.9,486.7L516.9,479.8L513.8,479.8L513.8,477.8L516.9,477.8L516.9,473.9L519.2,473.9L519.2,477.8L523.9,477.8L523.9,479.8L519.2,479.8L519.2,486.5C519.2,487.7 519.4,488.5 519.8,489C520.2,489.5 520.9,489.8 521.8,489.8C522.7,489.8 523.6,489.6 524.5,489.1L524.8,491C524.4,491.3 523.9,491.4 523.3,491.6C522.7,491.8 522,491.7 521.4,491.7Z" style="fill-rule:nonzero;"></path> <path d="M528,491.4L528,469.4L530.3,469.4L530.3,479.9C530.7,479.1 531.3,478.5 532.1,478C532.9,477.5 533.8,477.3 534.7,477.3C536.3,477.3 537.5,477.8 538.4,478.8C539.3,479.8 539.7,481.2 539.7,483.1L539.7,491.3L537.4,491.3L537.4,483.6C537.4,480.8 536.3,479.4 534.2,479.4C533,479.4 532,479.8 531.4,480.6C530.8,481.4 530.4,482.5 530.4,483.9L530.4,491.4L528,491.4Z" style="fill-rule:nonzero;"></path> <path d="M550.9,491.7C549.4,491.7 548,491.4 546.9,490.8C545.8,490.2 544.9,489.4 544.3,488.3C543.7,487.2 543.4,486 543.4,484.5C543.4,483.1 543.7,481.8 544.3,480.7C544.9,479.6 545.7,478.8 546.7,478.1C547.7,477.5 548.9,477.2 550.2,477.2C551.4,477.2 552.5,477.5 553.4,478C554.3,478.6 555,479.3 555.5,480.3C556,481.3 556.3,482.5 556.3,483.8L556.3,485L545.8,485C546,486.4 546.5,487.5 547.4,488.3C548.3,489.1 549.6,489.4 551.1,489.4C552.7,489.4 554.2,489 555.7,488.3L556,490.2C555.4,490.6 554.6,490.9 553.7,491.1C552.8,491.6 551.9,491.7 550.9,491.7ZM550,479.3C548.8,479.3 547.9,479.7 547.1,480.4C546.3,481.1 545.9,482.1 545.7,483.4L554,483.4C554,483.2 554,483 553.9,482.8C553.8,481.6 553.3,480.8 552.6,480.2C552,479.6 551.1,479.3 550,479.3Z" style="fill-rule:nonzero;"></path> <path d="M566.5,497.9L566.5,477.8L568.7,477.8L568.8,480.4C569.3,479.4 570,478.7 570.9,478.1C571.8,477.6 572.8,477.3 574,477.3C575.3,477.3 576.4,477.6 577.3,478.2C578.3,478.8 579,479.7 579.6,480.7C580.2,481.8 580.4,483 580.4,484.4C580.4,485.7 580.1,486.9 579.5,488C578.9,489.1 578.1,490 577.1,490.6C576.1,491.2 574.9,491.6 573.7,491.6C572.6,491.6 571.7,491.4 570.9,490.9C570.1,490.4 569.4,489.7 568.9,488.8L568.9,497.8L566.5,497.8L566.5,497.9ZM573.3,489.7C574.2,489.7 575.1,489.5 575.8,489.1C576.5,488.7 577.1,488.1 577.5,487.3C577.9,486.5 578.1,485.6 578.1,484.6C578.1,483.6 577.9,482.7 577.5,481.9C577.1,481.1 576.5,480.5 575.8,480.1C575.1,479.7 574.3,479.5 573.3,479.5C572.4,479.5 571.6,479.7 570.9,480.1C570.2,480.5 569.6,481.1 569.2,481.9C568.8,482.7 568.6,483.6 568.6,484.6C568.6,485.6 568.8,486.5 569.2,487.3C569.6,488.1 570.2,488.7 570.9,489.1C571.6,489.5 572.4,489.7 573.3,489.7Z" style="fill-rule:nonzero;"></path> <path d="M590,491.7C588.8,491.7 587.6,491.4 586.7,490.8C585.7,490.2 584.9,489.3 584.4,488.2C583.9,487.1 583.6,485.9 583.6,484.5C583.6,483.2 583.9,482 584.5,480.9C585.1,479.8 585.9,478.9 586.9,478.3C587.9,477.7 589.1,477.3 590.3,477.3C591.3,477.3 592.3,477.6 593.1,478.1C594,478.6 594.6,479.3 595.2,480.2L595.3,477.7L597.5,477.7L597.5,491.2L595.3,491.2L595.2,488.7C594.7,489.6 593.9,490.3 593.1,490.8C592.3,491.3 591.1,491.7 590,491.7ZM590.6,489.7C591.5,489.7 592.4,489.5 593.1,489.1C593.8,488.7 594.4,488.1 594.8,487.3C595.2,486.5 595.4,485.6 595.4,484.6C595.4,483.6 595.2,482.7 594.8,481.9C594.4,481.1 593.8,480.5 593.1,480.1C592.4,479.7 591.6,479.5 590.6,479.5C589.7,479.5 588.9,479.7 588.2,480.1C587.5,480.5 586.9,481.1 586.5,481.9C586.1,482.7 585.9,483.6 585.9,484.6C585.9,485.6 586.1,486.5 586.5,487.3C586.9,488.1 587.5,488.7 588.2,489.1C588.8,489.5 589.6,489.7 590.6,489.7Z" style="fill-rule:nonzero;"></path> <path d="M602,497.9L605.7,490.2L599.9,477.8L602.4,477.8L606.9,487.7L611.3,477.8L613.7,477.8L604.4,497.9L602,497.9Z" style="fill-rule:nonzero;"></path> <path d="M616.8,491.6L616.8,477.8L619,477.8L619,480.1C619.4,479.2 620,478.6 620.7,478.1C621.5,477.6 622.4,477.4 623.4,477.4C625.6,477.4 627.1,478.4 627.8,480.4C628.2,479.5 628.8,478.7 629.6,478.2C630.4,477.7 631.4,477.4 632.4,477.4C634,477.4 635.2,477.9 636.1,478.9C637,479.9 637.4,481.3 637.4,483.2L637.4,491.4L635.1,491.4L635.1,483.7C635.1,480.9 634,479.5 631.9,479.5C630.8,479.5 629.9,479.9 629.2,480.7C628.5,481.5 628.2,482.6 628.2,484L628.2,491.5L625.9,491.5L625.9,483.7C625.9,480.9 624.8,479.6 622.7,479.6C621.5,479.6 620.6,480 620,480.8C619.3,481.6 619,482.7 619,484.1L619,491.6L616.8,491.6Z" style="fill-rule:nonzero;"></path> <path d="M648.6,491.7C647.1,491.7 645.7,491.4 644.6,490.8C643.5,490.2 642.6,489.4 642,488.3C641.4,487.2 641.1,486 641.1,484.5C641.1,483.1 641.4,481.8 642,480.7C642.6,479.6 643.4,478.8 644.4,478.1C645.4,477.5 646.6,477.2 647.9,477.2C649.1,477.2 650.2,477.5 651.1,478C652,478.6 652.7,479.3 653.2,480.3C653.7,481.3 654,482.5 654,483.8L654,485L643.5,485C643.7,486.4 644.2,487.5 645.1,488.3C646,489.1 647.3,489.4 648.8,489.4C650.4,489.4 651.9,489 653.4,488.3L653.7,490.2C653.1,490.6 652.3,490.9 651.4,491.1C650.5,491.6 649.6,491.7 648.6,491.7ZM647.7,479.3C646.5,479.3 645.6,479.7 644.8,480.4C644,481.1 643.6,482.1 643.4,483.4L651.7,483.4C651.7,483.2 651.7,483 651.6,482.8C651.5,481.6 651,480.8 650.3,480.2C649.7,479.6 648.8,479.3 647.7,479.3Z" style="fill-rule:nonzero;"></path> <path d="M658.1,491.5L658.1,477.8L660.3,477.8L660.3,480.1C660.7,479.2 661.3,478.6 662.1,478.1C662.9,477.6 663.8,477.4 664.8,477.4C666.4,477.4 667.6,477.9 668.5,478.9C669.4,479.9 669.8,481.3 669.8,483.2L669.8,491.4L667.5,491.4L667.5,483.7C667.5,480.9 666.4,479.5 664.3,479.5C663.1,479.5 662.1,479.9 661.5,480.7C660.9,481.5 660.5,482.6 660.5,484L660.5,491.5L658.1,491.5Z" style="fill-rule:nonzero;"></path> <path d="M679.5,491.7C678,491.7 676.8,491.3 676.1,490.5C675.4,489.7 675,488.4 675,486.7L675,479.8L671.9,479.8L671.9,477.8L675,477.8L675,473.9L677.3,473.9L677.3,477.8L682,477.8L682,479.8L677.3,479.8L677.3,486.5C677.3,487.7 677.5,488.5 677.9,489C678.3,489.5 679,489.8 679.9,489.8C680.8,489.8 681.7,489.6 682.6,489.1L682.9,491C682.5,491.3 682,491.4 681.4,491.6C680.8,491.8 680.1,491.7 679.5,491.7Z" style="fill-rule:nonzero;"></path> <path d="M689.2,491.7C688.4,491.7 687.5,491.6 686.7,491.3C685.9,491 685.2,490.8 684.7,490.4L685.1,488.4C685.7,488.8 686.3,489.1 687.1,489.4C687.9,489.7 688.6,489.8 689.3,489.8C690.3,489.8 691.1,489.6 691.6,489.3C692.2,488.9 692.4,488.5 692.4,487.9C692.4,487.5 692.3,487.2 692.1,486.9C691.9,486.6 691.6,486.4 691.1,486.2C690.6,486 690,485.7 689.1,485.5C687.6,485 686.5,484.5 685.9,483.9C685.3,483.3 684.9,482.5 684.9,481.4C684.9,480.2 685.4,479.2 686.3,478.5C687.2,477.8 688.4,477.4 690,477.4C690.7,477.4 691.5,477.5 692.2,477.7C693,477.9 693.6,478.2 694,478.5L693.6,480.4C692.4,479.7 691.2,479.3 689.8,479.3C688.9,479.3 688.2,479.5 687.7,479.8C687.2,480.1 687,480.6 687,481.1C687,481.7 687.2,482.1 687.6,482.4C688,482.7 688.8,483 689.9,483.4C691.6,483.9 692.8,484.5 693.5,485.1C694.2,485.7 694.5,486.6 694.5,487.7C694.5,488.9 694,489.9 693,490.6C692.2,491.4 690.8,491.7 689.2,491.7Z" style="fill-rule:nonzero;"></path> <path d="M710,491.7C708.8,491.7 707.6,491.4 706.7,490.8C705.7,490.2 704.9,489.3 704.4,488.2C703.9,487.1 703.6,485.9 703.6,484.5C703.6,483.2 703.9,482 704.5,480.9C705.1,479.8 705.9,478.9 706.9,478.3C707.9,477.7 709.1,477.3 710.3,477.3C711.3,477.3 712.3,477.6 713.1,478.1C714,478.6 714.6,479.3 715.2,480.2L715.3,477.7L717.5,477.7L717.5,491.2L715.3,491.2L715.2,488.7C714.7,489.6 713.9,490.3 713.1,490.8C712.3,491.3 711.1,491.7 710,491.7ZM710.5,489.7C711.4,489.7 712.3,489.5 713,489.1C713.7,488.7 714.3,488.1 714.7,487.3C715.1,486.5 715.3,485.6 715.3,484.6C715.3,483.6 715.1,482.7 714.7,481.9C714.3,481.1 713.7,480.5 713,480.1C712.3,479.7 711.5,479.5 710.5,479.5C709.6,479.5 708.8,479.7 708.1,480.1C707.4,480.5 706.8,481.1 706.4,481.9C706,482.7 705.8,483.6 705.8,484.6C705.8,485.6 706,486.5 706.4,487.3C706.8,488.1 707.4,488.7 708.1,489.1C708.8,489.5 709.6,489.7 710.5,489.7Z" style="fill-rule:nonzero;"></path> <path d="M725.5,491.7C724.7,491.7 723.8,491.6 723,491.3C722.2,491 721.5,490.8 721,490.4L721.4,488.4C722,488.8 722.6,489.1 723.4,489.4C724.2,489.7 724.9,489.8 725.6,489.8C726.6,489.8 727.4,489.6 727.9,489.3C728.5,488.9 728.7,488.5 728.7,487.9C728.7,487.5 728.6,487.2 728.4,486.9C728.2,486.6 727.9,486.4 727.4,486.2C726.9,486 726.3,485.7 725.4,485.5C723.9,485 722.8,484.5 722.2,483.9C721.6,483.3 721.2,482.5 721.2,481.4C721.2,480.2 721.7,479.2 722.6,478.5C723.5,477.8 724.7,477.4 726.3,477.4C727,477.4 727.8,477.5 728.5,477.7C729.3,477.9 729.9,478.2 730.3,478.5L729.9,480.4C728.7,479.7 727.5,479.3 726.1,479.3C725.2,479.3 724.5,479.5 724,479.8C723.5,480.1 723.3,480.6 723.3,481.1C723.3,481.7 723.5,482.1 723.9,482.4C724.3,482.7 725.1,483 726.2,483.4C727.9,483.9 729.1,484.5 729.8,485.1C730.5,485.7 730.8,486.6 730.8,487.7C730.8,488.9 730.3,489.9 729.3,490.6C728.5,491.4 727.1,491.7 725.5,491.7Z" style="fill-rule:nonzero;"></path> <path d="M737.8,491.7C737,491.7 736.1,491.6 735.3,491.3C734.5,491 733.8,490.8 733.3,490.4L733.7,488.4C734.3,488.8 734.9,489.1 735.7,489.4C736.5,489.7 737.2,489.8 737.9,489.8C738.9,489.8 739.7,489.6 740.2,489.3C740.8,488.9 741,488.5 741,487.9C741,487.5 740.9,487.2 740.7,486.9C740.5,486.6 740.2,486.4 739.7,486.2C739.2,486 738.6,485.7 737.7,485.5C736.2,485 735.1,484.5 734.5,483.9C733.9,483.3 733.5,482.5 733.5,481.4C733.5,480.2 734,479.2 734.9,478.5C735.8,477.8 737,477.4 738.6,477.4C739.3,477.4 740.1,477.5 740.8,477.7C741.6,477.9 742.2,478.2 742.6,478.5L742.2,480.4C741,479.7 739.8,479.3 738.4,479.3C737.5,479.3 736.8,479.5 736.3,479.8C735.8,480.1 735.6,480.6 735.6,481.1C735.6,481.7 735.8,482.1 736.2,482.4C736.6,482.7 737.4,483 738.5,483.4C740.2,483.9 741.4,484.5 742.1,485.1C742.8,485.7 743.1,486.6 743.1,487.7C743.1,488.9 742.6,489.9 741.6,490.6C740.8,491.4 739.4,491.7 737.8,491.7Z" style="fill-rule:nonzero;"></path> <path d="M753.3,491.7C751.9,491.7 750.7,491.4 749.7,490.8C748.7,490.2 747.8,489.3 747.2,488.2C746.6,487.1 746.3,485.9 746.3,484.5C746.3,483.2 746.6,481.9 747.2,480.9C747.8,479.8 748.7,479 749.8,478.3C750.9,477.7 752.1,477.3 753.4,477.3C754.8,477.3 756,477.6 757,478.2C758.1,478.8 758.9,479.7 759.5,480.8C760.1,481.9 760.4,483.1 760.4,484.5C760.4,485.8 760.1,487 759.5,488.1C758.9,489.2 758,490.1 756.9,490.7C755.8,491.4 754.6,491.7 753.3,491.7ZM753.3,489.7C754.2,489.7 755.1,489.5 755.8,489.1C756.5,488.7 757.1,488.1 757.5,487.3C757.9,486.5 758.1,485.6 758.1,484.6C758.1,483.6 757.9,482.7 757.5,481.9C757.1,481.1 756.5,480.5 755.8,480.1C755.1,479.7 754.3,479.5 753.3,479.5C752.4,479.5 751.6,479.7 750.9,480.1C750.2,480.5 749.6,481.1 749.2,481.9C748.8,482.7 748.6,483.6 748.6,484.6C748.6,485.6 748.8,486.5 749.2,487.3C749.6,488.1 750.2,488.7 750.9,489.1C751.6,489.5 752.4,489.7 753.3,489.7Z" style="fill-rule:nonzero;"></path> <path d="M770.9,491.7C769.4,491.7 768.1,491.4 767,490.8C765.9,490.2 765.1,489.4 764.4,488.4C763.8,487.3 763.5,486.1 763.5,484.7C763.5,483.3 763.8,482 764.4,480.9C765,479.8 765.9,479 767,478.4C768.1,477.8 769.4,477.5 770.8,477.5C771.5,477.5 772.2,477.6 772.9,477.8C773.6,478 774.2,478.2 774.8,478.5L774.5,480.5C774,480.2 773.4,480 772.7,479.8C772,479.6 771.4,479.5 770.8,479.5C769.3,479.5 768.1,480 767.2,480.9C766.3,481.8 765.8,483 765.8,484.6C765.8,486.2 766.3,487.4 767.2,488.3C768.1,489.2 769.4,489.6 771,489.6C771.6,489.6 772.2,489.5 772.8,489.4C773.4,489.3 774.1,489 774.8,488.7L775.1,490.6C774.5,490.9 773.9,491.2 773.1,491.4C772.4,491.6 771.6,491.7 770.9,491.7Z" style="fill-rule:nonzero;"></path> <path d="M780.2,474.2C779.7,474.2 779.4,474 779.1,473.7C778.8,473.4 778.7,473 778.7,472.5C778.7,472 778.8,471.6 779.1,471.3C779.4,471 779.8,470.8 780.2,470.8C780.7,470.8 781,471 781.3,471.3C781.6,471.6 781.7,472 781.7,472.5C781.7,473 781.6,473.4 781.3,473.7C781,474 780.6,474.2 780.2,474.2ZM779,491.3L779,477.8L781.3,477.8L781.3,491.3L779,491.3Z" style="fill-rule:nonzero;"></path> <path d="M791.8,491.7C790.6,491.7 789.4,491.4 788.5,490.8C787.5,490.2 786.7,489.3 786.2,488.2C785.7,487.1 785.4,485.9 785.4,484.5C785.4,483.2 785.7,482 786.3,480.9C786.9,479.8 787.7,478.9 788.7,478.3C789.7,477.7 790.9,477.3 792.1,477.3C793.1,477.3 794.1,477.6 794.9,478.1C795.8,478.6 796.4,479.3 797,480.2L797.1,477.7L799.3,477.7L799.3,491.2L797,491.2L796.9,488.7C796.4,489.6 795.6,490.3 794.8,490.8C794,491.3 793,491.7 791.8,491.7ZM792.4,489.7C793.3,489.7 794.2,489.5 794.9,489.1C795.6,488.7 796.2,488.1 796.6,487.3C797,486.5 797.2,485.6 797.2,484.6C797.2,483.6 797,482.7 796.6,481.9C796.2,481.1 795.6,480.5 794.9,480.1C794.2,479.7 793.4,479.5 792.4,479.5C791.5,479.5 790.7,479.7 790,480.1C789.3,480.5 788.7,481.1 788.3,481.9C787.9,482.7 787.7,483.6 787.7,484.6C787.7,485.6 787.9,486.5 788.3,487.3C788.7,488.1 789.3,488.7 790,489.1C790.7,489.5 791.5,489.7 792.4,489.7Z" style="fill-rule:nonzero;"></path> <path d="M809,491.7C807.5,491.7 806.3,491.3 805.6,490.5C804.9,489.7 804.5,488.4 804.5,486.7L804.5,479.8L801.4,479.8L801.4,477.8L804.5,477.8L804.5,473.9L806.8,473.9L806.8,477.8L811.5,477.8L811.5,479.8L806.8,479.8L806.8,486.5C806.8,487.7 807,488.5 807.4,489C807.8,489.5 808.5,489.8 809.4,489.8C810.3,489.8 811.2,489.6 812.1,489.1L812.4,491C812,491.3 811.5,491.4 810.9,491.6C810.3,491.8 809.6,491.7 809,491.7Z" style="fill-rule:nonzero;"></path> <path d="M816.7,474.2C816.2,474.2 815.9,474 815.6,473.7C815.3,473.4 815.2,473 815.2,472.5C815.2,472 815.3,471.6 815.6,471.3C815.9,471 816.3,470.8 816.7,470.8C817.2,470.8 817.5,471 817.8,471.3C818.1,471.6 818.2,472 818.2,472.5C818.2,473 818.1,473.4 817.8,473.7C817.6,474 817.2,474.2 816.7,474.2ZM815.6,491.3L815.6,477.8L817.9,477.8L817.9,491.3L815.6,491.3Z" style="fill-rule:nonzero;"></path> <path d="M828.9,491.7C827.5,491.7 826.3,491.4 825.3,490.8C824.3,490.2 823.4,489.3 822.8,488.2C822.2,487.1 821.9,485.9 821.9,484.5C821.9,483.2 822.2,481.9 822.8,480.9C823.4,479.8 824.3,479 825.4,478.3C826.5,477.7 827.7,477.3 829,477.3C830.4,477.3 831.6,477.6 832.6,478.2C833.7,478.8 834.5,479.7 835.1,480.8C835.7,481.9 836,483.1 836,484.5C836,485.8 835.7,487 835.1,488.1C834.5,489.2 833.6,490.1 832.5,490.7C831.4,491.4 830.2,491.7 828.9,491.7ZM828.9,489.7C829.8,489.7 830.7,489.5 831.4,489.1C832.1,488.7 832.7,488.1 833.1,487.3C833.5,486.5 833.7,485.6 833.7,484.6C833.7,483.6 833.5,482.7 833.1,481.9C832.7,481.1 832.1,480.5 831.4,480.1C830.7,479.7 829.9,479.5 828.9,479.5C828,479.5 827.2,479.7 826.5,480.1C825.8,480.5 825.2,481.1 824.8,481.9C824.4,482.7 824.2,483.6 824.2,484.6C824.2,485.6 824.4,486.5 824.8,487.3C825.2,488.1 825.8,488.7 826.5,489.1C827.1,489.5 827.9,489.7 828.9,489.7Z" style="fill-rule:nonzero;"></path> <path d="M839.6,491.5L839.6,477.8L841.8,477.8L841.8,480.1C842.2,479.2 842.8,478.6 843.6,478.1C844.4,477.6 845.3,477.4 846.3,477.4C847.9,477.4 849.1,477.9 850,478.9C850.9,479.9 851.3,481.3 851.3,483.2L851.3,491.4L849,491.4L849,483.7C849,480.9 847.9,479.5 845.8,479.5C844.6,479.5 843.6,479.9 843,480.7C842.4,481.5 842,482.6 842,484L842,491.5L839.6,491.5Z" style="fill-rule:nonzero;"></path> </g> </g> </g> </svg>